<svg xmlns="http://www.w3.org/2000/svg" viewBox="0 0 190.066 26.909">
  <defs>
    <style>
      .cls-1 {
        fill: #f18021;
      }
    </style>
  </defs>
  <g id="Group_17" data-name="Group 17" transform="translate(-8.234 -9.89)">
    <path id="Path_2" data-name="Path 2" d="M38.048,37.424c-2.484,3.45-4.876,6.716-7.36,10.12-2.484-3.45-4.922-6.716-7.452-10.212a18.119,18.119,0,0,0-.184,3.772c-.046,1.932-.092,3.864,0,5.8.046,1.012-.322,1.242-1.242,1.2a20.96,20.96,0,0,0-2.944,0c-.644.046-.966-.092-.966-.874.046-8.418.046-16.79.046-25.208,0-.046.046-.046.184-.184,4.14,5.658,8.28,11.362,12.512,17.158,4.186-5.75,8.326-11.408,12.7-17.388v8.556c0,5.52-.046,11.086.046,16.606,0,1.15-.322,1.472-1.426,1.334-1.2-.138-2.806.506-3.542-.276s-.184-2.346-.23-3.588c-.046-2.116,0-4.232,0-6.394A3.579,3.579,0,0,0,38.048,37.424Z" transform="translate(-9.666 -11.664)"/>
    <path id="Path_3" data-name="Path 3" d="M190.64,47.92A13.111,13.111,0,1,1,203.888,34.9,13.126,13.126,0,0,1,190.64,47.92Zm-8.05-13.064a7.852,7.852,0,0,0,8.142,7.912,7.97,7.97,0,0,0,7.958-8,8.162,8.162,0,0,0-8-8A8.078,8.078,0,0,0,182.59,34.856Z" transform="translate(-95.743 -11.718)"/>
    <path id="Path_4" data-name="Path 4" class="cls-1" d="M288.423,22.584c1.61,4.14,3.128,8.05,4.784,12.236,1.1-2.76,2.07-5.29,3.036-7.774a6.149,6.149,0,0,1,.322-.828c1.472-3.864,1.472-3.818,5.658-3.818,1.15,0,1.334.276.92,1.334-2.254,5.658-4.508,11.362-6.716,17.02-1.058,2.668-2.07,5.29-3.174,8.142-1.61-4.324-3.174-8.418-4.876-12.88-1.61,4.37-3.128,8.418-4.6,12.512-.6-.138-.552-.69-.736-1.058-3.082-7.82-6.118-15.686-9.246-23.46-.46-1.2-.414-1.61,1.012-1.564,3.91.092,3.91,0,5.336,3.634,1.1,2.806,2.208,5.658,3.45,8.832C285.3,30.634,286.813,26.724,288.423,22.584Z" transform="translate(-147.711 -12.096)"/>
    <path id="Path_5" data-name="Path 5" class="cls-1" d="M393.964,33.271c1.886,0,3.772.046,5.658,0,.69,0,.92.23.966.92.6,6.946-5.014,13.2-12.006,13.708A13.007,13.007,0,0,1,374.69,34.513a12.544,12.544,0,0,1,7.5-11.546c4.738-2.3,9.292-1.426,13.524,1.564,1.058.736,1.1,1.334.092,2.07-.092.046-.138.138-.23.23-.69.69-1.288,1.7-2.116,2.024-.92.368-1.564-.874-2.438-1.242a7.738,7.738,0,0,0-8.556,1.334,8.16,8.16,0,0,0-2.116,8.924,7.837,7.837,0,0,0,7.13,4.922,7.737,7.737,0,0,0,6.67-3.45c.184-.276.506-.552.322-.92s-.6-.23-.92-.23c-1.7,0-3.358-.046-5.06,0-.828,0-1.1-.184-1.1-1.058-.092-3.864-.138-3.864,3.772-3.864Z" transform="translate(-202.33 -11.698)"/>
    <path id="Path_6" data-name="Path 6" d="M152.424,48.464c-2.07,0-3.864-.046-5.7,0-.736.046-.874-.46-1.2-.92-2.254-3.45-4.508-6.9-7.038-10.258,0,3.22-.046,6.44.046,9.66.046,1.242-.276,1.656-1.518,1.518-1.15-.138-2.76.368-3.45-.23-.828-.69-.276-2.3-.276-3.542-.046-6.992,0-14.03-.046-21.022,0-1.058.276-1.38,1.334-1.288,2.944.138,5.934-.184,8.878.23,3.4.506,6.026,2.254,7.176,5.428a8.971,8.971,0,0,1-1.794,9.384c-.184.23-.46.368-.644.6-.46.552-1.61.414-1.564,1.2.046.644.736,1.242,1.1,1.886C149.25,43.5,150.768,45.842,152.424,48.464Zm-13.892-17.2v2.806c0,.414-.046.782.6.782a28.9,28.9,0,0,0,4-.092,3.179,3.179,0,0,0,2.622-2.852c.46-2.714-1.15-4.278-4.508-4.37-2.714-.092-2.714-.092-2.714,2.53Z" transform="translate(-71.879 -12.079)"/>
    <path id="Path_7" data-name="Path 7" d="M101.752,48c-1.794,0-3.358-.046-4.922,0a.9.9,0,0,1-.966-.874c-.6-2.852-2.392-3.634-5.106-3.22a20.75,20.75,0,0,1-4.14,0c-.828-.046-1.334.184-1.518.966C84.548,47.536,82.892,48.5,80.27,48a15.332,15.332,0,0,0-2.07,0c3.91-8.832,7.728-17.526,11.73-26.5C93.932,30.47,97.8,39.164,101.752,48ZM87.538,39.348h4.83c-.782-1.84-1.564-3.588-2.392-5.566C89.056,35.806,88.32,37.554,87.538,39.348Z" transform="translate(-42.229 -11.61)"/>
    <path id="Path_8" data-name="Path 8" class="cls-1" d="M337.982,21.5c.92,2.07,1.7,3.818,2.484,5.566q4.347,9.8,8.74,19.55c.552,1.2.368,1.564-.92,1.426h-.276c-2.668.46-4.6-.23-5.152-3.174-.138-.782-.69-.92-1.426-.92-2.208.046-4.462.046-6.67,0-.874-.046-1.472.23-1.656,1.058-.506,2.714-2.208,3.358-4.784,3.082-2.07-.23-2.07-.046-1.288-1.886C330.576,38.06,334.21,29.964,337.982,21.5Zm0,12.282c-.874,2.024-1.61,3.772-2.392,5.566h4.784C339.592,37.554,338.856,35.806,337.982,33.782Z" transform="translate(-176.34 -11.61)"/>
    <path id="Path_9" data-name="Path 9" class="cls-1" d="M245.7,47.933a8.231,8.231,0,0,1-7.866-5.428c-.276-.874-.23-1.38.828-1.472a6.665,6.665,0,0,0,1.61-.322c1.288-.368,2.254-.552,3.128.966.874,1.472,2.9,1.472,4.324.368a2.281,2.281,0,0,0-.23-4,16.742,16.742,0,0,0-3.312-1.2c-2.806-.92-5.106-2.484-6.026-5.428a7.6,7.6,0,0,1,3.312-8.464,7.856,7.856,0,0,1,10.58,1.932c.736.92,1.472,2.024,1.334,3.036-.23,1.2-1.748.736-2.668,1.058-1.15.414-2.254.736-2.852-.966a2.132,2.132,0,0,0-2.53-1.1,2.6,2.6,0,0,0-2.162,1.978A2.423,2.423,0,0,0,244.18,31.6a12.3,12.3,0,0,0,3.4,1.38c2.99.92,5.566,2.438,6.21,5.842C254.713,43.609,250.8,47.933,245.7,47.933Z" transform="translate(-128.353 -11.731)"/>
  </g>
</svg>
